<svg xmlns="http://www.w3.org/2000/svg" xmlns:xlink="http://www.w3.org/1999/xlink" width="500" zoomAndPan="magnify" viewBox="0 0 375 374.999991" height="500" preserveAspectRatio="xMidYMid meet" version="1.0"><defs><clipPath id="id1"><path d="M 65 94 L 290 94 L 290 296.839844 L 65 296.839844 Z M 65 94 " clip-rule="nonzero"/></clipPath></defs><rect x="-37.5" width="450" fill="rgb(100%, 100%, 100%)" y="-37.499999" height="449.999989" fill-opacity="1"/><rect x="-37.5" width="450" fill="rgb(100%, 100%, 100%)" y="-37.499999" height="449.999989" fill-opacity="1"/><rect x="-37.5" width="450" fill="rgb(100%, 100%, 100%)" y="-37.499999" height="449.999989" fill-opacity="1"/><rect x="-37.5" width="450" fill="rgb(100%, 100%, 100%)" y="-37.499999" height="449.999989" fill-opacity="1"/><path fill="rgb(13.729858%, 12.159729%, 12.548828%)" d="M 213.703125 212.898438 C 217.925781 219.914062 235.964844 236.558594 240.515625 243.265625 C 244.777344 249.554688 244.28125 256.777344 244.050781 264.121094 C 244.050781 264.121094 244.171875 274.4375 241.832031 280.65625 C 241.832031 280.65625 240.878906 286.824219 236.515625 288.097656 C 236.515625 288.097656 234.269531 289.96875 235.753906 292.570312 L 245.511719 292.570312 L 247.085938 286.460938 C 247.085938 286.460938 247.632812 285.679688 248.023438 287.550781 C 248.023438 287.550781 248.570312 288.609375 249.429688 287.628906 C 249.429688 287.628906 249.511719 286.789062 249.664062 285.363281 C 250.46875 277.867188 253.195312 254.1875 255.808594 250.910156 C 255.808594 250.910156 261.351562 244.925781 258.605469 239.855469 C 258.605469 239.855469 244.566406 212.789062 256.800781 195.605469 " fill-opacity="1" fill-rule="nonzero"/><g clip-path="url(#id1)"><path fill="rgb(13.729858%, 12.159729%, 12.548828%)" d="M 279.535156 289.003906 C 279.054688 280.957031 283.066406 258.273438 285.621094 255.074219 C 285.621094 255.074219 291.164062 249.085938 288.414062 244.015625 C 288.414062 244.015625 274.382812 216.953125 286.617188 199.765625 C 286.617188 199.765625 301.253906 154.554688 260.617188 144.15625 C 251.527344 141.828125 238.425781 146.238281 229.378906 147.640625 C 204.148438 151.554688 180.777344 149.992188 155.785156 145.875 C 141.699219 141.863281 123.023438 113.96875 123.023438 113.96875 C 130.136719 115.710938 131.734375 114.882812 126.058594 105.875 C 122.652344 100.460938 118.246094 97.734375 118.246094 97.734375 C 118.246094 97.734375 110.339844 91.140625 101.949219 97.042969 C 101.949219 97.042969 85.101562 107.4375 83.148438 114.75 C 71.828125 127.136719 72.722656 126.363281 66.695312 130.660156 C 66.695312 130.660156 63.171875 135.351562 66.695312 139.652344 C 66.695312 139.652344 69.4375 142.777344 72.570312 143.171875 L 80.40625 143.171875 L 81.578125 145.457031 C 83.539062 147.082031 83.539062 151.769531 83.539062 151.769531 L 83.539062 156.199219 C 84.320312 158.417969 85.925781 164.535156 85.925781 164.535156 L 86.5625 158.6875 L 89.320312 156.007812 C 89.640625 153.347656 89.238281 149.785156 89.238281 149.785156 L 92.632812 147.039062 L 93.753906 142.421875 C 93.753906 142.421875 96.589844 143.679688 99.992188 143.5625 C 99.992188 143.5625 105.066406 143.914062 107.089844 141.828125 L 115.753906 171.144531 C 115.753906 171.144531 116.078125 182.839844 122.785156 186.347656 C 124.890625 192.679688 134.015625 208.359375 145.941406 217.875 C 145.941406 217.875 150.664062 247.269531 149.355469 282.042969 C 149.355469 282.042969 149.273438 282.570312 149.046875 283.410156 C 148.570312 285.183594 147.445312 288.371094 145.0625 291.015625 C 145.0625 291.015625 142.125 292.789062 142.519531 296.789062 L 153.59375 296.535156 L 156.199219 291.296875 C 159.90625 294.160156 157.953125 287.921875 157.953125 287.921875 C 155.21875 280.707031 160.542969 251.332031 160.542969 251.332031 L 169.164062 219.601562 C 169.164062 219.601562 176.53125 222.441406 198.210938 225.707031 C 198.210938 225.707031 225.15625 224.078125 243.519531 217.058594 C 247.738281 224.078125 265.78125 240.71875 270.332031 247.429688 C 274.59375 253.71875 273.648438 261.339844 273.417969 268.683594 C 273.417969 268.683594 274.019531 282.230469 270.71875 288.640625 C 270.71875 288.640625 269.71875 290.453125 267.171875 291.300781 C 267.171875 291.300781 263.722656 292.609375 265.570312 296.734375 L 276.203125 296.734375 L 277.535156 290.636719 C 277.535156 290.636719 277.597656 292.570312 278.734375 292.410156 C 278.734375 292.410156 279.78125 293.113281 279.535156 289.003906 " fill-opacity="1" fill-rule="nonzero"/></g><path fill="rgb(13.729858%, 12.159729%, 12.548828%)" d="M 101.304688 102.277344 C 104.007812 80.46875 128.179688 86.367188 128.179688 86.367188 C 131.332031 85.617188 129.253906 83.785156 129.253906 83.785156 C 124.5625 80.957031 119.28125 81.839844 119.28125 81.839844 C 96.847656 84.683594 91.414062 103.925781 91.414062 103.925781 C 91.414062 103.925781 90.335938 106.476562 96.570312 107.242188 C 96.570312 107.242188 100.464844 109.074219 101.304688 102.277344 " fill-opacity="1" fill-rule="nonzero"/><path fill="rgb(13.729858%, 12.159729%, 12.548828%)" d="M 112.929688 100.851562 C 122.929688 77.816406 147.527344 92.054688 147.527344 92.054688 C 151.226562 92.242188 149.539062 89.5625 149.539062 89.5625 C 145.304688 84.957031 139.230469 84.226562 139.230469 84.226562 C 113.71875 80.132812 101.554688 99.488281 101.554688 99.488281 C 101.554688 99.488281 99.546875 101.9375 106.136719 104.777344 C 106.136719 104.777344 109.8125 108.042969 112.929688 100.851562 " fill-opacity="1" fill-rule="nonzero"/><path fill="rgb(13.729858%, 12.159729%, 12.548828%)" d="M 167.273438 213.699219 C 167.273438 213.699219 171.996094 243.097656 170.6875 277.871094 C 170.6875 277.871094 170.609375 278.394531 170.382812 279.234375 C 169.902344 281.011719 168.777344 284.195312 166.390625 286.839844 C 166.390625 286.839844 163.460938 288.617188 163.851562 292.617188 L 174.925781 292.359375 L 177.53125 287.125 C 181.238281 289.988281 179.285156 283.75 179.285156 283.75 C 176.550781 276.53125 181.878906 247.160156 181.878906 247.160156 L 190.496094 215.429688 " fill-opacity="1" fill-rule="nonzero"/><path fill="rgb(13.729858%, 12.159729%, 12.548828%)" d="M 254.917969 252.042969 L 257.472656 241.367188 C 257.472656 241.367188 259.503906 242.894531 270.71875 240.347656 C 270.71875 240.347656 269.351562 197.738281 233.085938 220.316406 C 233.085938 220.316406 237.679688 236.570312 251.351562 238.820312 L 250.078125 249.757812 C 250.078125 249.757812 249.90625 252.042969 251.902344 252.9375 C 251.902344 252.9375 253.519531 253.828125 254.917969 252.042969 " fill-opacity="1" fill-rule="nonzero"/><path fill="rgb(13.729858%, 12.159729%, 12.548828%)" d="M 242.9375 235.246094 L 241.835938 244.703125 C 241.835938 244.703125 241.683594 246.679688 243.414062 247.453125 C 243.414062 247.453125 244.808594 248.222656 246.023438 246.679688 L 248.097656 237.976562 " fill-opacity="1" fill-rule="nonzero"/><path fill="rgb(13.729858%, 12.159729%, 12.548828%)" d="M 286.882812 166.890625 C 286.882812 166.890625 294.527344 169.226562 297.726562 183.464844 C 297.726562 183.464844 300.496094 182.199219 299.410156 179.90625 C 299.410156 179.90625 300.640625 184.503906 299.664062 187.769531 C 299.664062 187.769531 302.679688 188.859375 303.042969 183.78125 C 303.042969 183.78125 305.226562 185.957031 303.042969 192.128906 C 303.042969 192.128906 312.015625 194.902344 309.890625 179.90625 C 309.890625 179.90625 302.058594 160.996094 284.265625 160.996094 " fill-opacity="1" fill-rule="nonzero"/></svg>